  0
SECTION
  2
HEADER
  9
$ACADVER
  1
AC1018
  9
$ACADMAINTVER
 70
     0
  9
$DWGCODEPAGE
  3
ANSI_1252
  9
$INSBASE
 10
0.0
 20
0.0
 30
0.0
  9
$EXTMIN
 10
-1.4805
 20
-0.9507952755905512
 30
0.0
  9
$EXTMAX
 10
1.687271653543307
 20
0.8022047244094488
 30
0.0
  9
$LIMMIN
 10
0.0
 20
0.0
  9
$LIMMAX
 10
12.0
 20
9.0
  9
$ORTHOMODE
 70
     0
  9
$REGENMODE
 70
     1
  9
$FILLMODE
 70
     1
  9
$QTEXTMODE
 70
     0
  9
$MIRRTEXT
 70
     1
  9
$LTSCALE
 40
1.0
  9
$ATTMODE
 70
     1
  9
$TEXTSIZE
 40
0.2
  9
$TRACEWID
 40
0.05
  9
$TEXTSTYLE
  7
Standard
  9
$CLAYER
  8
0
  9
$CELTYPE
  6
ByLayer
  9
$CECOLOR
 62
   256
  9
$CELTSCALE
 40
1.0
  9
$DISPSILH
 70
     0
  9
$DIMSCALE
 40
1.0
  9
$DIMASZ
 40
0.18
  9
$DIMEXO
 40
0.0625
  9
$DIMDLI
 40
0.38
  9
$DIMRND
 40
0.0
  9
$DIMDLE
 40
0.0
  9
$DIMEXE
 40
0.18
  9
$DIMTP
 40
0.0
  9
$DIMTM
 40
0.0
  9
$DIMTXT
 40
0.18
  9
$DIMCEN
 40
0.09
  9
$DIMTSZ
 40
0.0
  9
$DIMTOL
 70
     0
  9
$DIMLIM
 70
     0
  9
$DIMTIH
 70
     1
  9
$DIMTOH
 70
     1
  9
$DIMSE1
 70
     0
  9
$DIMSE2
 70
     0
  9
$DIMTAD
 70
     0
  9
$DIMZIN
 70
     0
  9
$DIMBLK
  1

  9
$DIMASO
 70
     1
  9
$DIMSHO
 70
     1
  9
$DIMPOST
  1

  9
$DIMAPOST
  1

  9
$DIMALT
 70
     0
  9
$DIMALTD
 70
     2
  9
$DIMALTF
 40
25.4
  9
$DIMLFAC
 40
1.0
  9
$DIMTOFL
 70
     0
  9
$DIMTVP
 40
0.0
  9
$DIMTIX
 70
     0
  9
$DIMSOXD
 70
     0
  9
$DIMSAH
 70
     0
  9
$DIMBLK1
  1

  9
$DIMBLK2
  1

  9
$DIMSTYLE
  2
Standard
  9
$DIMCLRD
 70
     0
  9
$DIMCLRE
 70
     0
  9
$DIMCLRT
 70
     0
  9
$DIMTFAC
 40
1.0
  9
$DIMGAP
 40
0.09
  9
$DIMJUST
 70
     0
  9
$DIMSD1
 70
     0
  9
$DIMSD2
 70
     0
  9
$DIMTOLJ
 70
     1
  9
$DIMTZIN
 70
     0
  9
$DIMALTZ
 70
     0
  9
$DIMALTTZ
 70
     0
  9
$DIMUPT
 70
     0
  9
$DIMDEC
 70
     4
  9
$DIMTDEC
 70
     4
  9
$DIMALTU
 70
     2
  9
$DIMALTTD
 70
     2
  9
$DIMTXSTY
  7
Standard
  9
$DIMAUNIT
 70
     0
  9
$DIMADEC
 70
     0
  9
$DIMALTRND
 40
0.0
  9
$DIMAZIN
 70
     0
  9
$DIMDSEP
 70
    46
  9
$DIMATFIT
 70
     3
  9
$DIMFRAC
 70
     0
  9
$DIMLDRBLK
  1

  9
$DIMLUNIT
 70
     2
  9
$DIMLWD
 70
    -2
  9
$DIMLWE
 70
    -2
  9
$DIMTMOVE
 70
     0
  9
$LUNITS
 70
     2
  9
$LUPREC
 70
     4
  9
$SKETCHINC
 40
0.1
  9
$FILLETRAD
 40
0.5
  9
$AUNITS
 70
     0
  9
$AUPREC
 70
     0
  9
$MENU
  1
.
  9
$ELEVATION
 40
0.0
  9
$PELEVATION
 40
0.0
  9
$THICKNESS
 40
0.0
  9
$LIMCHECK
 70
     0
  9
$CHAMFERA
 40
0.5
  9
$CHAMFERB
 40
0.5
  9
$CHAMFERC
 40
1.0
  9
$CHAMFERD
 40
0.0
  9
$SKPOLY
 70
     0
  9
$TDCREATE
 40
2457253.618991644
  9
$TDUCREATE
 40
2457253.827324977
  9
$TDUPDATE
 40
2457253.660658322
  9
$TDUUPDATE
 40
2457253.827324988
  9
$TDINDWG
 40
0.0000000116
  9
$TDUSRTIMER
 40
0.0000000116
  9
$USRTIMER
 70
     1
  9
$ANGBASE
 50
0.0
  9
$ANGDIR
 70
     0
  9
$PDMODE
 70
     0
  9
$PDSIZE
 40
0.0
  9
$PLINEWID
 40
0.0
  9
$SPLFRAME
 70
     0
  9
$SPLINETYPE
 70
     6
  9
$SPLINESEGS
 70
     8
  9
$HANDSEED
  5
47
  9
$SURFTAB1
 70
     6
  9
$SURFTAB2
 70
     6
  9
$SURFTYPE
 70
     6
  9
$SURFU
 70
     6
  9
$SURFV
 70
     6
  9
$UCSBASE
  2

  9
$UCSNAME
  2

  9
$UCSORG
 10
0.0
 20
0.0
 30
0.0
  9
$UCSXDIR
 10
1.0
 20
0.0
 30
0.0
  9
$UCSYDIR
 10
0.0
 20
1.0
 30
0.0
  9
$UCSORTHOREF
  2

  9
$UCSORTHOVIEW
 70
     0
  9
$UCSORGTOP
 10
0.0
 20
0.0
 30
0.0
  9
$UCSORGBOTTOM
 10
0.0
 20
0.0
 30
0.0
  9
$UCSORGLEFT
 10
0.0
 20
0.0
 30
0.0
  9
$UCSORGRIGHT
 10
0.0
 20
0.0
 30
0.0
  9
$UCSORGFRONT
 10
0.0
 20
0.0
 30
0.0
  9
$UCSORGBACK
 10
0.0
 20
0.0
 30
0.0
  9
$PUCSBASE
  2

  9
$PUCSNAME
  2

  9
$PUCSORG
 10
0.0
 20
0.0
 30
0.0
  9
$PUCSXDIR
 10
1.0
 20
0.0
 30
0.0
  9
$PUCSYDIR
 10
0.0
 20
1.0
 30
0.0
  9
$PUCSORTHOREF
  2

  9
$PUCSORTHOVIEW
 70
     0
  9
$PUCSORGTOP
 10
0.0
 20
0.0
 30
0.0
  9
$PUCSORGBOTTOM
 10
0.0
 20
0.0
 30
0.0
  9
$PUCSORGLEFT
 10
0.0
 20
0.0
 30
0.0
  9
$PUCSORGRIGHT
 10
0.0
 20
0.0
 30
0.0
  9
$PUCSORGFRONT
 10
0.0
 20
0.0
 30
0.0
  9
$PUCSORGBACK
 10
0.0
 20
0.0
 30
0.0
  9
$USERI1
 70
     0
  9
$USERI2
 70
     0
  9
$USERI3
 70
     0
  9
$USERI4
 70
     0
  9
$USERI5
 70
     0
  9
$USERR1
 40
0.0
  9
$USERR2
 40
0.0
  9
$USERR3
 40
0.0
  9
$USERR4
 40
0.0
  9
$USERR5
 40
0.0
  9
$WORLDVIEW
 70
     1
  9
$SHADEDGE
 70
     3
  9
$SHADEDIF
 70
    70
  9
$TILEMODE
 70
     1
  9
$MAXACTVP
 70
    64
  9
$PINSBASE
 10
0.0
 20
0.0
 30
0.0
  9
$PLIMCHECK
 70
     0
  9
$PEXTMIN
 10
1.000000000000000E+20
 20
1.000000000000000E+20
 30
1.000000000000000E+20
  9
$PEXTMAX
 10
-1.000000000000000E+20
 20
-1.000000000000000E+20
 30
-1.000000000000000E+20
  9
$PLIMMIN
 10
0.0
 20
0.0
  9
$PLIMMAX
 10
12.0
 20
9.0
  9
$UNITMODE
 70
     0
  9
$VISRETAIN
 70
     1
  9
$PLINEGEN
 70
     0
  9
$PSLTSCALE
 70
     1
  9
$TREEDEPTH
 70
  3020
  9
$CMLSTYLE
  2
Standard
  9
$CMLJUST
 70
     0
  9
$CMLSCALE
 40
1.0
  9
$PROXYGRAPHICS
 70
     1
  9
$MEASUREMENT
 70
     0
  9
$CELWEIGHT
370
    -1
  9
$ENDCAPS
280
     0
  9
$JOINSTYLE
280
     0
  9
$LWDISPLAY
290
     0
  9
$INSUNITS
 70
     1
  9
$HYPERLINKBASE
  1

  9
$STYLESHEET
  1

  9
$XEDIT
290
     1
  9
$CEPSNTYPE
380
     0
  9
$PSTYLEMODE
290
     0
  9
$FINGERPRINTGUID
  2
{FAEB1C30-E019-11D5-929B-00C0DF256EC4}
  9
$VERSIONGUID
  2
{FAEB1C32-E019-11D5-929B-00C0DF256EC4}
  9
$EXTNAMES
290
     1
  9
$PSVPSCALE
 40
0.0
  9
$OLESTARTUP
290
     0
  9
$SORTENTS
280
   127
  9
$INDEXCTL
280
     0
  9
$HIDETEXT
280
     1
  9
$XCLIPFRAME
290
     0
  9
$HALOGAP
280
     0
  9
$OBSCOLOR
 70
   257
  9
$OBSLTYPE
280
     0
  9
$INTERSECTIONDISPLAY
280
     0
  9
$INTERSECTIONCOLOR
 70
   257
  9
$DIMASSOC
280
     2
  9
$PROJECTNAME
  1

  0
ENDSEC
  0
SECTION
  2
CLASSES
  0
CLASS
  1
ACDBDICTIONARYWDFLT
  2
AcDbDictionaryWithDefault
  3
ObjectDBX Classes
 90
        0
 91
        1
280
     0
281
     0
  0
ENDSEC
  0
SECTION
  2
TABLES
  0
TABLE
  2
VPORT
  5
8
330
0
100
AcDbSymbolTable
 70
     2
  0
VPORT
  5
29
330
8
100
AcDbSymbolTableRecord
100
AcDbViewportTableRecord
  2
*Active
 70
     0
 10
0.0
 20
0.0
 11
1.0
 21
1.0
 12
10.42990654205607
 22
4.5
 13
0.0
 23
0.0
 14
0.5
 24
0.5
 15
0.5
 25
0.5
 16
0.0
 26
0.0
 36
1.0
 17
0.0
 27
0.0
 37
0.0
 40
9.0
 41
1.972972972850329
 42
50.0
 43
0.0
 44
0.0
 50
0.0
 51
0.0
 71
     0
 72
   100
 73
     1
 74
     3
 75
     0
 76
     0
 77
     0
 78
     0
281
     0
 65
     1
110
0.0
120
0.0
130
0.0
111
1.0
121
0.0
131
0.0
112
0.0
122
1.0
132
0.0
 79
     0
146
0.0
  0
ENDTAB
  0
TABLE
  2
LTYPE
  5
5
330
0
100
AcDbSymbolTable
 70
     1
  0
LTYPE
  5
14
330
5
100
AcDbSymbolTableRecord
100
AcDbLinetypeTableRecord
  2
ByBlock
 70
     0
  3

 72
    65
 73
     0
 40
0.0
  0
LTYPE
  5
15
330
5
100
AcDbSymbolTableRecord
100
AcDbLinetypeTableRecord
  2
ByLayer
 70
     0
  3

 72
    65
 73
     0
 40
0.0
  0
LTYPE
  5
16
330
5
100
AcDbSymbolTableRecord
100
AcDbLinetypeTableRecord
  2
Continuous
 70
     0
  3
Solid line
 72
    65
 73
     0
 40
0.0
  0
ENDTAB
  0
TABLE
  2
LAYER
  5
2
330
0
100
AcDbSymbolTable
 70
     2
  0
LAYER
  5
10
330
2
100
AcDbSymbolTableRecord
100
AcDbLayerTableRecord
  2
0
 70
     0
 62
     7
  6
Continuous
370
    -3
390
F
  0
LAYER
  5
2B
330
2
100
AcDbSymbolTableRecord
100
AcDbLayerTableRecord
  2
Layer 1
 70
     0
 62
     7
  6
Continuous
370
    -3
390
F
  0
ENDTAB
  0
TABLE
  2
STYLE
  5
3
330
0
100
AcDbSymbolTable
 70
     1
  0
STYLE
  5
11
330
3
100
AcDbSymbolTableRecord
100
AcDbTextStyleTableRecord
  2
Standard
 70
     0
 40
0.0
 41
1.0
 50
0.0
 71
     0
 42
0.2
  3
txt
  4

  0
ENDTAB
  0
TABLE
  2
VIEW
  5
6
330
0
100
AcDbSymbolTable
 70
     0
  0
ENDTAB
  0
TABLE
  2
UCS
  5
7
330
0
100
AcDbSymbolTable
 70
     0
  0
ENDTAB
  0
TABLE
  2
APPID
  5
9
330
0
100
AcDbSymbolTable
 70
     2
  0
APPID
  5
12
330
9
100
AcDbSymbolTableRecord
100
AcDbRegAppTableRecord
  2
ACAD
 70
     0
  0
APPID
  5
2A
330
9
100
AcDbSymbolTableRecord
100
AcDbRegAppTableRecord
  2
ODA
 70
     0
  0
ENDTAB
  0
TABLE
  2
DIMSTYLE
  5
A
330
0
100
AcDbSymbolTable
 70
     1
100
AcDbDimStyleTable
  0
DIMSTYLE
105
27
330
A
100
AcDbSymbolTableRecord
100
AcDbDimStyleTableRecord
  2
Standard
 70
     0
340
11
  0
ENDTAB
  0
TABLE
  2
BLOCK_RECORD
  5
1
330
0
100
AcDbSymbolTable
 70
     1
  0
BLOCK_RECORD
  5
1F
330
1
100
AcDbSymbolTableRecord
100
AcDbBlockTableRecord
  2
*Model_Space
340
22
  0
BLOCK_RECORD
  5
1B
330
1
100
AcDbSymbolTableRecord
100
AcDbBlockTableRecord
  2
*Paper_Space
340
1E
  0
BLOCK_RECORD
  5
23
330
1
100
AcDbSymbolTableRecord
100
AcDbBlockTableRecord
  2
*Paper_Space0
340
26
  0
ENDTAB
  0
ENDSEC
  0
SECTION
  2
BLOCKS
  0
BLOCK
  5
20
330
1F
100
AcDbEntity
  8
0
100
AcDbBlockBegin
  2
*Model_Space
 70
     0
 71
     0
 10
0.0
 20
0.0
 30
0.0
  3
*Model_Space
  1

  0
ENDBLK
  5
21
330
1F
100
AcDbEntity
  8
0
100
AcDbBlockEnd
  0
BLOCK
  5
1C
330
1B
100
AcDbEntity
 67
     1
  8
0
100
AcDbBlockBegin
  2
*Paper_Space
 70
     0
 71
     0
 10
0.0
 20
0.0
 30
0.0
  3
*Paper_Space
  1

  0
ENDBLK
  5
1D
330
1B
100
AcDbEntity
 67
     1
  8
0
100
AcDbBlockEnd
  0
BLOCK
  5
24
330
23
100
AcDbEntity
  8
0
100
AcDbBlockBegin
  2
*Paper_Space0
 70
     0
 71
     0
 10
0.0
 20
0.0
 30
0.0
  3
*Paper_Space0
  1

  0
ENDBLK
  5
25
330
23
100
AcDbEntity
  8
0
100
AcDbBlockEnd
  0
ENDSEC
  0
SECTION
  2
ENTITIES
  0
SPLINE
  5
2C
330
1F
100
AcDbEntity
  8
Layer 1
 62
   250
370
     5
100
AcDbSpline
210
0.0
220
0.0
230
1.0
 70
     8
 71
     3
 72
     8
 73
     4
 74
     0
 42
0.0000000001
 43
0.0000000001
 40
0.0
 40
0.0
 40
0.0
 40
0.0
 40
1.0
 40
1.0
 40
1.0
 40
1.0
 10
-1.391181102362205
 20
-0.9492952755905513
 30
0.0
 10
-1.337909448818898
 20
-0.9492952755905513
 30
0.0
 10
-1.294468503937008
 20
-0.9043740157480316
 30
0.0
 10
-1.294468503937008
 20
-0.8492952755905512
 30
0.0
  0
SPLINE
  5
2D
330
1F
100
AcDbEntity
  8
Layer 1
 62
   250
370
     5
100
AcDbSpline
210
0.0
220
0.0
230
1.0
 70
     8
 71
     3
 72
     8
 73
     4
 74
     0
 42
0.0000000001
 43
0.0000000001
 40
0.0
 40
0.0
 40
0.0
 40
0.0
 40
1.0
 40
1.0
 40
1.0
 40
1.0
 10
-0.6161850393700787
 20
-0.9492952755905513
 30
0.0
 10
-0.6694566929133858
 20
-0.9492952755905513
 30
0.0
 10
-0.7128976377952756
 20
-0.9043740157480316
 30
0.0
 10
-0.7128976377952756
 20
-0.8492952755905512
 30
0.0
  0
SPLINE
  5
2E
330
1F
100
AcDbEntity
  8
Layer 1
 62
   250
370
     5
100
AcDbSpline
210
0.0
220
0.0
230
1.0
 70
     8
 71
     3
 72
    36
 73
    32
 74
     0
 42
0.0000000001
 43
0.0000000001
 40
0.0
 40
0.0
 40
0.0
 40
0.0
 40
0.125
 40
0.125
 40
0.125
 40
0.125
 40
0.25
 40
0.25
 40
0.25
 40
0.25
 40
0.375
 40
0.375
 40
0.375
 40
0.375
 40
0.5
 40
0.5
 40
0.5
 40
0.5
 40
0.625
 40
0.625
 40
0.625
 40
0.625
 40
0.75
 40
0.75
 40
0.75
 40
0.75
 40
0.875
 40
0.875
 40
0.875
 40
0.875
 40
1.0
 40
1.0
 40
1.0
 40
1.0
 10
-1.385188976377953
 20
-0.9491023622047244
 30
0.0
 10
-1.437405511811024
 20
-0.9458858267716536
 30
0.0
 10
-1.479
 20
-0.9022913385826772
 30
0.0
 10
-1.479
 20
-0.8492952755905512
 30
0.0
 10
-1.479
 20
-0.8492952755905512
 30
0.0
 10
-1.479
 20
-0.8492952755905512
 30
0.0
 10
-1.479
 20
0.7007047244094489
 30
0.0
 10
-1.479
 20
0.7007047244094489
 30
0.0
 10
-1.479
 20
0.7007047244094489
 30
0.0
 10
-1.479
 20
0.7557834645669291
 30
0.0
 10
-1.43407874015748
 20
0.8007047244094488
 30
0.0
 10
-1.379
 20
0.8007047244094488
 30
0.0
 10
-1.379
 20
0.8007047244094488
 30
0.0
 10
-1.379
 20
0.8007047244094488
 30
0.0
 10
-0.079
 20
0.8007047244094488
 30
0.0
 10
-0.079
 20
0.8007047244094488
 30
0.0
 10
-0.079
 20
0.8007047244094488
 30
0.0
 10
-0.0239212598425197
 20
0.8007047244094488
 30
0.0
 10
0.021
 20
0.7557834645669291
 30
0.0
 10
0.021
 20
0.7007047244094489
 30
0.0
 10
0.021
 20
0.7007047244094489
 30
0.0
 10
0.021
 20
0.7007047244094489
 30
0.0
 10
0.021
 20
-0.8492952755905512
 30
0.0
 10
0.021
 20
-0.8492952755905512
 30
0.0
 10
0.021
 20
-0.8492952755905512
 30
0.0
 10
0.021
 20
-0.9043740157480316
 30
0.0
 10
-0.0239212598425197
 20
-0.9492952755905513
 30
0.0
 10
-0.079
 20
-0.9492952755905513
 30
0.0
 10
-0.079
 20
-0.9492952755905513
 30
0.0
 10
-0.079
 20
-0.9492952755905513
 30
0.0
 10
-0.6161850393700787
 20
-0.9492952755905513
 30
0.0
 10
-0.6161850393700787
 20
-0.9492952755905513
 30
0.0
  0
SPLINE
  5
2F
330
1F
100
AcDbEntity
  8
Layer 1
 62
   250
370
     5
100
AcDbSpline
210
0.0
220
0.0
230
1.0
 70
     8
 71
     3
 72
    24
 73
    20
 74
     0
 42
0.0000000001
 43
0.0000000001
 40
0.0
 40
0.0
 40
0.0
 40
0.0
 40
0.2
 40
0.2
 40
0.2
 40
0.2
 40
0.4
 40
0.4
 40
0.4
 40
0.4
 40
0.6000000000000001
 40
0.6000000000000001
 40
0.6000000000000001
 40
0.6000000000000001
 40
0.8
 40
0.8
 40
0.8
 40
0.8
 40
1.0
 40
1.0
 40
1.0
 40
1.0
 10
-0.7128976377952756
 20
-0.8491850393700787
 30
0.0
 10
-0.7128976377952756
 20
-0.8491850393700787
 30
0.0
 10
-0.7128976377952756
 20
-0.8421259842519685
 30
0.0
 10
-0.7128976377952756
 20
-0.8421259842519685
 30
0.0
 10
-0.7128976377952756
 20
-0.8421259842519685
 30
0.0
 10
-0.7128976377952756
 20
-0.7870472440944882
 30
0.0
 10
-0.7563779527559056
 20
-0.7421259842519685
 30
0.0
 10
-0.8096220472440945
 20
-0.7421259842519685
 30
0.0
 10
-0.8096220472440945
 20
-0.7421259842519685
 30
0.0
 10
-0.8096220472440945
 20
-0.7421259842519685
 30
0.0
 10
-1.197744094488189
 20
-0.7421259842519685
 30
0.0
 10
-1.197744094488189
 20
-0.7421259842519685
 30
0.0
 10
-1.197744094488189
 20
-0.7421259842519685
 30
0.0
 10
-1.250988188976378
 20
-0.7421259842519685
 30
0.0
 10
-1.294468503937008
 20
-0.7870472440944882
 30
0.0
 10
-1.294468503937008
 20
-0.8421259842519685
 30
0.0
 10
-1.294468503937008
 20
-0.8421259842519685
 30
0.0
 10
-1.294468503937008
 20
-0.8421259842519685
 30
0.0
 10
-1.294468503937008
 20
-0.8492952755905512
 30
0.0
 10
-1.294468503937008
 20
-0.8492952755905512
 30
0.0
  0
SPLINE
  5
30
330
1F
100
AcDbEntity
  8
Layer 1
 62
   250
370
     5
100
AcDbSpline
210
0.0
220
0.0
230
1.0
 70
    11
 71
     3
 72
    20
 73
    16
 74
     0
 42
0.0000000001
 43
0.0000000001
 40
0.0
 40
0.0
 40
0.0
 40
0.0
 40
0.25
 40
0.25
 40
0.25
 40
0.25
 40
0.5
 40
0.5
 40
0.5
 40
0.5
 40
0.75
 40
0.75
 40
0.75
 40
0.75
 40
1.0
 40
1.0
 40
1.0
 40
1.0
 10
-0.194003937007874
 20
-0.6442913385826772
 30
0.0
 10
-0.194003937007874
 20
-0.6719015748031496
 30
0.0
 10
-0.1716141732283465
 20
-0.6942913385826772
 30
0.0
 10
-0.144003937007874
 20
-0.6942913385826772
 30
0.0
 10
-0.144003937007874
 20
-0.6942913385826772
 30
0.0
 10
-0.1163937007874016
 20
-0.6942913385826772
 30
0.0
 10
-0.094003937007874
 20
-0.6719015748031496
 30
0.0
 10
-0.094003937007874
 20
-0.6442913385826772
 30
0.0
 10
-0.094003937007874
 20
-0.6442913385826772
 30
0.0
 10
-0.094003937007874
 20
-0.6166811023622048
 30
0.0
 10
-0.1163937007874016
 20
-0.5942913385826772
 30
0.0
 10
-0.144003937007874
 20
-0.5942913385826772
 30
0.0
 10
-0.144003937007874
 20
-0.5942913385826772
 30
0.0
 10
-0.1716141732283465
 20
-0.5942913385826772
 30
0.0
 10
-0.194003937007874
 20
-0.6166811023622048
 30
0.0
 10
-0.194003937007874
 20
-0.6442913385826772
 30
0.0
  0
SPLINE
  5
31
330
1F
100
AcDbEntity
  8
Layer 1
 62
   250
370
     5
100
AcDbSpline
210
0.0
220
0.0
230
1.0
 70
    11
 71
     3
 72
    20
 73
    16
 74
     0
 42
0.0000000001
 43
0.0000000001
 40
0.0
 40
0.0
 40
0.0
 40
0.0
 40
0.25
 40
0.25
 40
0.25
 40
0.25
 40
0.5
 40
0.5
 40
0.5
 40
0.5
 40
0.75
 40
0.75
 40
0.75
 40
0.75
 40
1.0
 40
1.0
 40
1.0
 40
1.0
 10
-0.194003937007874
 20
0.4957007874015748
 30
0.0
 10
-0.194003937007874
 20
0.4680905511811024
 30
0.0
 10
-0.1716141732283465
 20
0.4457007874015748
 30
0.0
 10
-0.144003937007874
 20
0.4457007874015748
 30
0.0
 10
-0.144003937007874
 20
0.4457007874015748
 30
0.0
 10
-0.1163937007874016
 20
0.4457007874015748
 30
0.0
 10
-0.094003937007874
 20
0.4680905511811024
 30
0.0
 10
-0.094003937007874
 20
0.4957007874015748
 30
0.0
 10
-0.094003937007874
 20
0.4957007874015748
 30
0.0
 10
-0.094003937007874
 20
0.5233110236220473
 30
0.0
 10
-0.1163937007874016
 20
0.5457007874015748
 30
0.0
 10
-0.144003937007874
 20
0.5457007874015748
 30
0.0
 10
-0.144003937007874
 20
0.5457007874015748
 30
0.0
 10
-0.1716141732283465
 20
0.5457007874015748
 30
0.0
 10
-0.194003937007874
 20
0.5233110236220473
 30
0.0
 10
-0.194003937007874
 20
0.4957007874015748
 30
0.0
  0
SPLINE
  5
32
330
1F
100
AcDbEntity
  8
Layer 1
 62
   250
370
     5
100
AcDbSpline
210
0.0
220
0.0
230
1.0
 70
    11
 71
     3
 72
    20
 73
    16
 74
     0
 42
0.0000000001
 43
0.0000000001
 40
0.0
 40
0.0
 40
0.0
 40
0.0
 40
0.25
 40
0.25
 40
0.25
 40
0.25
 40
0.5
 40
0.5
 40
0.5
 40
0.5
 40
0.75
 40
0.75
 40
0.75
 40
0.75
 40
1.0
 40
1.0
 40
1.0
 40
1.0
 10
-1.353996062992126
 20
0.6032047244094488
 30
0.0
 10
-1.353996062992126
 20
0.5755944881889764
 30
0.0
 10
-1.331606299212599
 20
0.5532047244094488
 30
0.0
 10
-1.303996062992126
 20
0.5532047244094488
 30
0.0
 10
-1.303996062992126
 20
0.5532047244094488
 30
0.0
 10
-1.276385826771654
 20
0.5532047244094488
 30
0.0
 10
-1.253996062992126
 20
0.5755944881889764
 30
0.0
 10
-1.253996062992126
 20
0.6032047244094488
 30
0.0
 10
-1.253996062992126
 20
0.6032047244094488
 30
0.0
 10
-1.253996062992126
 20
0.6308149606299213
 30
0.0
 10
-1.276385826771654
 20
0.6532047244094489
 30
0.0
 10
-1.303996062992126
 20
0.6532047244094489
 30
0.0
 10
-1.303996062992126
 20
0.6532047244094489
 30
0.0
 10
-1.331606299212599
 20
0.6532047244094489
 30
0.0
 10
-1.353996062992126
 20
0.6308149606299213
 30
0.0
 10
-1.353996062992126
 20
0.6032047244094488
 30
0.0
  0
SPLINE
  5
33
330
1F
100
AcDbEntity
  8
Layer 1
 62
   250
370
     5
100
AcDbSpline
210
0.0
220
0.0
230
1.0
 70
    11
 71
     3
 72
    20
 73
    16
 74
     0
 42
0.0000000001
 43
0.0000000001
 40
0.0
 40
0.0
 40
0.0
 40
0.0
 40
0.25
 40
0.25
 40
0.25
 40
0.25
 40
0.5
 40
0.5
 40
0.5
 40
0.5
 40
0.75
 40
0.75
 40
0.75
 40
0.75
 40
1.0
 40
1.0
 40
1.0
 40
1.0
 10
-0.5540039370078741
 20
0.6032047244094488
 30
0.0
 10
-0.5540039370078741
 20
0.5755944881889764
 30
0.0
 10
-0.5316141732283465
 20
0.5532047244094488
 30
0.0
 10
-0.5040039370078741
 20
0.5532047244094488
 30
0.0
 10
-0.5040039370078741
 20
0.5532047244094488
 30
0.0
 10
-0.4763937007874016
 20
0.5532047244094488
 30
0.0
 10
-0.4540039370078741
 20
0.5755944881889764
 30
0.0
 10
-0.4540039370078741
 20
0.6032047244094488
 30
0.0
 10
-0.4540039370078741
 20
0.6032047244094488
 30
0.0
 10
-0.4540039370078741
 20
0.6308149606299213
 30
0.0
 10
-0.4763937007874016
 20
0.6532047244094489
 30
0.0
 10
-0.5040039370078741
 20
0.6532047244094489
 30
0.0
 10
-0.5040039370078741
 20
0.6532047244094489
 30
0.0
 10
-0.5316141732283465
 20
0.6532047244094489
 30
0.0
 10
-0.5540039370078741
 20
0.6308149606299213
 30
0.0
 10
-0.5540039370078741
 20
0.6032047244094488
 30
0.0
  0
SPLINE
  5
34
330
1F
100
AcDbEntity
  8
Layer 1
 62
   250
370
     5
100
AcDbSpline
210
0.0
220
0.0
230
1.0
 70
     8
 71
     3
 72
    24
 73
    20
 74
     0
 42
0.0000000001
 43
0.0000000001
 40
0.0
 40
0.0
 40
0.0
 40
0.0
 40
0.2
 40
0.2
 40
0.2
 40
0.2
 40
0.4
 40
0.4
 40
0.4
 40
0.4
 40
0.6000000000000001
 40
0.6000000000000001
 40
0.6000000000000001
 40
0.6000000000000001
 40
0.8
 40
0.8
 40
0.8
 40
0.8
 40
1.0
 40
1.0
 40
1.0
 40
1.0
 10
-1.35148031496063
 20
-0.6826811023622047
 30
0.0
 10
-1.35148031496063
 20
-0.6828858267716536
 30
0.0
 10
-1.351484251968504
 20
-0.6830866141732284
 30
0.0
 10
-1.351484251968504
 20
-0.6832874015748032
 30
0.0
 10
-1.351484251968504
 20
-0.6832874015748032
 30
0.0
 10
-1.351484251968504
 20
-0.7095078740157481
 30
0.0
 10
-1.330220472440945
 20
-0.7307755905511811
 30
0.0
 10
-1.303996062992126
 20
-0.7307755905511811
 30
0.0
 10
-1.303996062992126
 20
-0.7307755905511811
 30
0.0
 10
-1.277771653543307
 20
-0.7307755905511811
 30
0.0
 10
-1.256507874015748
 20
-0.7095078740157481
 30
0.0
 10
-1.256507874015748
 20
-0.6832874015748032
 30
0.0
 10
-1.256507874015748
 20
-0.6832874015748032
 30
0.0
 10
-1.256507874015748
 20
-0.6812952755905513
 30
0.0
 10
-1.256625984251969
 20
-0.6793228346456693
 30
0.0
 10
-1.256866141732284
 20
-0.6773897637795275
 30
0.0
 10
-1.256866141732284
 20
-0.6773897637795275
 30
0.0
 10
-1.256866141732284
 20
-0.6773897637795275
 30
0.0
 10
-1.256866141732284
 20
-0.6773858267716536
 30
0.0
 10
-1.256866141732284
 20
-0.6773818897637796
 30
0.0
  0
SPLINE
  5
35
330
1F
100
AcDbEntity
  8
Layer 1
 62
   250
370
     5
100
AcDbSpline
210
0.0
220
0.0
230
1.0
 70
     8
 71
     3
 72
    20
 73
    16
 74
     0
 42
0.0000000001
 43
0.0000000001
 40
0.0
 40
0.0
 40
0.0
 40
0.0
 40
0.25
 40
0.25
 40
0.25
 40
0.25
 40
0.5
 40
0.5
 40
0.5
 40
0.5
 40
0.75
 40
0.75
 40
0.75
 40
0.75
 40
1.0
 40
1.0
 40
1.0
 40
1.0
 10
-1.256507874015748
 20
-0.6459015748031496
 30
0.0
 10
-1.256507874015748
 20
-0.6457047244094488
 30
0.0
 10
-1.256507874015748
 20
-0.645496062992126
 30
0.0
 10
-1.256507874015748
 20
-0.6452952755905512
 30
0.0
 10
-1.256507874015748
 20
-0.6452952755905512
 30
0.0
 10
-1.256507874015748
 20
-0.6190748031496063
 30
0.0
 10
-1.277771653543307
 20
-0.5978070866141733
 30
0.0
 10
-1.303996062992126
 20
-0.5978070866141733
 30
0.0
 10
-1.303996062992126
 20
-0.5978070866141733
 30
0.0
 10
-1.330220472440945
 20
-0.5978070866141733
 30
0.0
 10
-1.351484251968504
 20
-0.6190748031496063
 30
0.0
 10
-1.351484251968504
 20
-0.6452952755905512
 30
0.0
 10
-1.351484251968504
 20
-0.6452952755905512
 30
0.0
 10
-1.351484251968504
 20
-0.645496062992126
 30
0.0
 10
-1.35148031496063
 20
-0.6456929133858268
 30
0.0
 10
-1.35148031496063
 20
-0.6458937007874016
 30
0.0
  0
SPLINE
  5
36
330
1F
100
AcDbEntity
  8
Layer 1
 62
   250
370
     5
100
AcDbSpline
210
0.0
220
0.0
230
1.0
 70
    24
 71
     3
 72
     8
 73
     4
 74
     0
 42
0.0000000001
 43
0.0000000001
 40
0.0
 40
0.0
 40
0.0
 40
0.0
 40
1.0
 40
1.0
 40
1.0
 40
1.0
 10
-1.35148031496063
 20
-0.6832874015748032
 30
0.0
 10
-1.35148031496063
 20
-0.6832874015748032
 30
0.0
 10
-1.35148031496063
 20
-0.6446929133858268
 30
0.0
 10
-1.35148031496063
 20
-0.6446929133858268
 30
0.0
  0
SPLINE
  5
37
330
1F
100
AcDbEntity
  8
Layer 1
 62
   250
370
     5
100
AcDbSpline
210
0.0
220
0.0
230
1.0
 70
    24
 71
     3
 72
     8
 73
     4
 74
     0
 42
0.0000000001
 43
0.0000000001
 40
0.0
 40
0.0
 40
0.0
 40
0.0
 40
1.0
 40
1.0
 40
1.0
 40
1.0
 10
-1.256511811023622
 20
-0.6838858267716536
 30
0.0
 10
-1.256511811023622
 20
-0.6838858267716536
 30
0.0
 10
-1.256511811023622
 20
-0.6452952755905512
 30
0.0
 10
-1.256511811023622
 20
-0.6452952755905512
 30
0.0
  0
SPLINE
  5
38
330
1F
100
AcDbEntity
  8
Layer 1
 62
   250
370
     5
100
AcDbSpline
210
0.0
220
0.0
230
1.0
 70
     8
 71
     3
 72
    24
 73
    20
 74
     0
 42
0.0000000001
 43
0.0000000001
 40
0.0
 40
0.0
 40
0.0
 40
0.0
 40
0.2
 40
0.2
 40
0.2
 40
0.2
 40
0.4
 40
0.4
 40
0.4
 40
0.4
 40
0.6000000000000001
 40
0.6000000000000001
 40
0.6000000000000001
 40
0.6000000000000001
 40
0.8
 40
0.8
 40
0.8
 40
0.8
 40
1.0
 40
1.0
 40
1.0
 40
1.0
 10
-0.7508543307086615
 20
-0.6833149606299213
 30
0.0
 10
-0.7508543307086615
 20
-0.6835196850393701
 30
0.0
 10
-0.7508582677165354
 20
-0.6837204724409449
 30
0.0
 10
-0.7508582677165354
 20
-0.6839212598425197
 30
0.0
 10
-0.7508582677165354
 20
-0.6839212598425197
 30
0.0
 10
-0.7508582677165354
 20
-0.7101417322834646
 30
0.0
 10
-0.7295944881889764
 20
-0.7314094488188977
 30
0.0
 10
-0.7033700787401576
 20
-0.7314094488188977
 30
0.0
 10
-0.7033700787401576
 20
-0.7314094488188977
 30
0.0
 10
-0.6771456692913386
 20
-0.7314094488188977
 30
0.0
 10
-0.6558818897637796
 20
-0.7101417322834646
 30
0.0
 10
-0.6558818897637796
 20
-0.6839212598425197
 30
0.0
 10
-0.6558818897637796
 20
-0.6839212598425197
 30
0.0
 10
-0.6558818897637796
 20
-0.6819291338582677
 30
0.0
 10
-0.656
 20
-0.6799566929133859
 30
0.0
 10
-0.656240157480315
 20
-0.6780236220472441
 30
0.0
 10
-0.656240157480315
 20
-0.6780236220472441
 30
0.0
 10
-0.656240157480315
 20
-0.6780236220472441
 30
0.0
 10
-0.656240157480315
 20
-0.6780196850393702
 30
0.0
 10
-0.656240157480315
 20
-0.6780157480314961
 30
0.0
  0
SPLINE
  5
39
330
1F
100
AcDbEntity
  8
Layer 1
 62
   250
370
     5
100
AcDbSpline
210
0.0
220
0.0
230
1.0
 70
     8
 71
     3
 72
    20
 73
    16
 74
     0
 42
0.0000000001
 43
0.0000000001
 40
0.0
 40
0.0
 40
0.0
 40
0.0
 40
0.25
 40
0.25
 40
0.25
 40
0.25
 40
0.5
 40
0.5
 40
0.5
 40
0.5
 40
0.75
 40
0.75
 40
0.75
 40
0.75
 40
1.0
 40
1.0
 40
1.0
 40
1.0
 10
-0.6558818897637796
 20
-0.6465354330708661
 30
0.0
 10
-0.6558818897637796
 20
-0.6463385826771654
 30
0.0
 10
-0.6558818897637796
 20
-0.6461299212598426
 30
0.0
 10
-0.6558818897637796
 20
-0.6459291338582678
 30
0.0
 10
-0.6558818897637796
 20
-0.6459291338582678
 30
0.0
 10
-0.6558818897637796
 20
-0.6197086614173228
 30
0.0
 10
-0.6771456692913386
 20
-0.5984409448818898
 30
0.0
 10
-0.7033700787401576
 20
-0.5984409448818898
 30
0.0
 10
-0.7033700787401576
 20
-0.5984409448818898
 30
0.0
 10
-0.7295944881889764
 20
-0.5984409448818898
 30
0.0
 10
-0.7508582677165354
 20
-0.6197086614173228
 30
0.0
 10
-0.7508582677165354
 20
-0.6459291338582678
 30
0.0
 10
-0.7508582677165354
 20
-0.6459291338582678
 30
0.0
 10
-0.7508582677165354
 20
-0.6461299212598426
 30
0.0
 10
-0.7508543307086615
 20
-0.6463267716535434
 30
0.0
 10
-0.7508543307086615
 20
-0.6465275590551182
 30
0.0
  0
SPLINE
  5
3A
330
1F
100
AcDbEntity
  8
Layer 1
 62
   250
370
     5
100
AcDbSpline
210
0.0
220
0.0
230
1.0
 70
    24
 71
     3
 72
     8
 73
     4
 74
     0
 42
0.0000000001
 43
0.0000000001
 40
0.0
 40
0.0
 40
0.0
 40
0.0
 40
1.0
 40
1.0
 40
1.0
 40
1.0
 10
-0.7508543307086615
 20
-0.6839212598425197
 30
0.0
 10
-0.7508543307086615
 20
-0.6839212598425197
 30
0.0
 10
-0.7508543307086615
 20
-0.6453267716535434
 30
0.0
 10
-0.7508543307086615
 20
-0.6453267716535434
 30
0.0
  0
SPLINE
  5
3B
330
1F
100
AcDbEntity
  8
Layer 1
 62
   250
370
     5
100
AcDbSpline
210
0.0
220
0.0
230
1.0
 70
    24
 71
     3
 72
     8
 73
     4
 74
     0
 42
0.0000000001
 43
0.0000000001
 40
0.0
 40
0.0
 40
0.0
 40
0.0
 40
1.0
 40
1.0
 40
1.0
 40
1.0
 10
-0.6558858267716535
 20
-0.6845196850393701
 30
0.0
 10
-0.6558858267716535
 20
-0.6845196850393701
 30
0.0
 10
-0.6558858267716535
 20
-0.6459291338582678
 30
0.0
 10
-0.6558858267716535
 20
-0.6459291338582678
 30
0.0
  0
SPLINE
  5
3C
330
1F
100
AcDbEntity
  8
Layer 1
 62
   250
370
     5
100
AcDbSpline
210
0.0
220
0.0
230
1.0
 70
    11
 71
     3
 72
    36
 73
    32
 74
     0
 42
0.0000000001
 43
0.0000000001
 40
0.0
 40
0.0
 40
0.0
 40
0.0
 40
0.125
 40
0.125
 40
0.125
 40
0.125
 40
0.25
 40
0.25
 40
0.25
 40
0.25
 40
0.375
 40
0.375
 40
0.375
 40
0.375
 40
0.5
 40
0.5
 40
0.5
 40
0.5
 40
0.625
 40
0.625
 40
0.625
 40
0.625
 40
0.75
 40
0.75
 40
0.75
 40
0.75
 40
0.875
 40
0.875
 40
0.875
 40
0.875
 40
1.0
 40
1.0
 40
1.0
 40
1.0
 10
0.1857716535433071
 20
-0.8492952755905512
 30
0.0
 10
0.1857716535433071
 20
-0.8492952755905512
 30
0.0
 10
0.1857716535433071
 20
0.7007047244094489
 30
0.0
 10
0.1857716535433071
 20
0.7007047244094489
 30
0.0
 10
0.1857716535433071
 20
0.7007047244094489
 30
0.0
 10
0.1857716535433071
 20
0.7557834645669291
 30
0.0
 10
0.2306929133858268
 20
0.8007047244094488
 30
0.0
 10
0.2857716535433071
 20
0.8007047244094488
 30
0.0
 10
0.2857716535433071
 20
0.8007047244094488
 30
0.0
 10
0.2857716535433071
 20
0.8007047244094488
 30
0.0
 10
1.585771653543307
 20
0.8007047244094488
 30
0.0
 10
1.585771653543307
 20
0.8007047244094488
 30
0.0
 10
1.585771653543307
 20
0.8007047244094488
 30
0.0
 10
1.640850393700787
 20
0.8007047244094488
 30
0.0
 10
1.685771653543307
 20
0.7557834645669291
 30
0.0
 10
1.685771653543307
 20
0.7007047244094489
 30
0.0
 10
1.685771653543307
 20
0.7007047244094489
 30
0.0
 10
1.685771653543307
 20
0.7007047244094489
 30
0.0
 10
1.685771653543307
 20
-0.8492952755905512
 30
0.0
 10
1.685771653543307
 20
-0.8492952755905512
 30
0.0
 10
1.685771653543307
 20
-0.8492952755905512
 30
0.0
 10
1.685771653543307
 20
-0.9043740157480316
 30
0.0
 10
1.640850393700787
 20
-0.9492952755905513
 30
0.0
 10
1.585771653543307
 20
-0.9492952755905513
 30
0.0
 10
1.585771653543307
 20
-0.9492952755905513
 30
0.0
 10
1.585771653543307
 20
-0.9492952755905513
 30
0.0
 10
0.2857716535433071
 20
-0.9492952755905513
 30
0.0
 10
0.2857716535433071
 20
-0.9492952755905513
 30
0.0
 10
0.2857716535433071
 20
-0.9492952755905513
 30
0.0
 10
0.2306929133858268
 20
-0.9492952755905513
 30
0.0
 10
0.1857716535433071
 20
-0.9043740157480316
 30
0.0
 10
0.1857716535433071
 20
-0.8492952755905512
 30
0.0
  0
SPLINE
  5
3D
330
1F
100
AcDbEntity
  8
Layer 1
 62
   250
370
     5
100
AcDbSpline
210
0.0
220
0.0
230
1.0
 70
    11
 71
     3
 72
    20
 73
    16
 74
     0
 42
0.0000000001
 43
0.0000000001
 40
0.0
 40
0.0
 40
0.0
 40
0.0
 40
0.25
 40
0.25
 40
0.25
 40
0.25
 40
0.5
 40
0.5
 40
0.5
 40
0.5
 40
0.75
 40
0.75
 40
0.75
 40
0.75
 40
1.0
 40
1.0
 40
1.0
 40
1.0
 10
1.473267716535433
 20
-0.6442913385826772
 30
0.0
 10
1.473267716535433
 20
-0.6705196850393701
 30
0.0
 10
1.49453937007874
 20
-0.6917913385826772
 30
0.0
 10
1.520767716535433
 20
-0.6917913385826772
 30
0.0
 10
1.520767716535433
 20
-0.6917913385826772
 30
0.0
 10
1.546996062992126
 20
-0.6917913385826772
 30
0.0
 10
1.568267716535433
 20
-0.6705196850393701
 30
0.0
 10
1.568267716535433
 20
-0.6442913385826772
 30
0.0
 10
1.568267716535433
 20
-0.6442913385826772
 30
0.0
 10
1.568267716535433
 20
-0.6180629921259843
 30
0.0
 10
1.546996062992126
 20
-0.5967913385826772
 30
0.0
 10
1.520767716535433
 20
-0.5967913385826772
 30
0.0
 10
1.520767716535433
 20
-0.5967913385826772
 30
0.0
 10
1.49453937007874
 20
-0.5967913385826772
 30
0.0
 10
1.473267716535433
 20
-0.6180629921259843
 30
0.0
 10
1.473267716535433
 20
-0.6442913385826772
 30
0.0
  0
SPLINE
  5
3E
330
1F
100
AcDbEntity
  8
Layer 1
 62
   250
370
     5
100
AcDbSpline
210
0.0
220
0.0
230
1.0
 70
    11
 71
     3
 72
    20
 73
    16
 74
     0
 42
0.0000000001
 43
0.0000000001
 40
0.0
 40
0.0
 40
0.0
 40
0.0
 40
0.25
 40
0.25
 40
0.25
 40
0.25
 40
0.5
 40
0.5
 40
0.5
 40
0.5
 40
0.75
 40
0.75
 40
0.75
 40
0.75
 40
1.0
 40
1.0
 40
1.0
 40
1.0
 10
1.473267716535433
 20
0.4957007874015748
 30
0.0
 10
1.473267716535433
 20
0.4694724409448819
 30
0.0
 10
1.49453937007874
 20
0.4482007874015748
 30
0.0
 10
1.520767716535433
 20
0.4482007874015748
 30
0.0
 10
1.520767716535433
 20
0.4482007874015748
 30
0.0
 10
1.546996062992126
 20
0.4482007874015748
 30
0.0
 10
1.568267716535433
 20
0.4694724409448819
 30
0.0
 10
1.568267716535433
 20
0.4957007874015748
 30
0.0
 10
1.568267716535433
 20
0.4957007874015748
 30
0.0
 10
1.568267716535433
 20
0.5219291338582678
 30
0.0
 10
1.546996062992126
 20
0.5432007874015749
 30
0.0
 10
1.520767716535433
 20
0.5432007874015749
 30
0.0
 10
1.520767716535433
 20
0.5432007874015749
 30
0.0
 10
1.49453937007874
 20
0.5432007874015749
 30
0.0
 10
1.473267716535433
 20
0.5219291338582678
 30
0.0
 10
1.473267716535433
 20
0.4957007874015748
 30
0.0
  0
SPLINE
  5
3F
330
1F
100
AcDbEntity
  8
Layer 1
 62
   250
370
     5
100
AcDbSpline
210
0.0
220
0.0
230
1.0
 70
    11
 71
     3
 72
    20
 73
    16
 74
     0
 42
0.0000000001
 43
0.0000000001
 40
0.0
 40
0.0
 40
0.0
 40
0.0
 40
0.25
 40
0.25
 40
0.25
 40
0.25
 40
0.5
 40
0.5
 40
0.5
 40
0.5
 40
0.75
 40
0.75
 40
0.75
 40
0.75
 40
1.0
 40
1.0
 40
1.0
 40
1.0
 10
0.3132755905511811
 20
-0.6442874015748031
 30
0.0
 10
0.3132755905511811
 20
-0.6705157480314961
 30
0.0
 10
0.3345472440944882
 20
-0.6917874015748032
 30
0.0
 10
0.3607755905511811
 20
-0.6917874015748032
 30
0.0
 10
0.3607755905511811
 20
-0.6917874015748032
 30
0.0
 10
0.3870039370078741
 20
-0.6917874015748032
 30
0.0
 10
0.4082755905511811
 20
-0.6705157480314961
 30
0.0
 10
0.4082755905511811
 20
-0.6442874015748031
 30
0.0
 10
0.4082755905511811
 20
-0.6442874015748031
 30
0.0
 10
0.4082755905511811
 20
-0.6180590551181102
 30
0.0
 10
0.3870039370078741
 20
-0.5967874015748031
 30
0.0
 10
0.3607755905511811
 20
-0.5967874015748031
 30
0.0
 10
0.3607755905511811
 20
-0.5967874015748031
 30
0.0
 10
0.3345472440944882
 20
-0.5967874015748031
 30
0.0
 10
0.3132755905511811
 20
-0.6180590551181102
 30
0.0
 10
0.3132755905511811
 20
-0.6442874015748031
 30
0.0
  0
SPLINE
  5
40
330
1F
100
AcDbEntity
  8
Layer 1
 62
   250
370
     5
100
AcDbSpline
210
0.0
220
0.0
230
1.0
 70
     8
 71
     3
 72
    40
 73
    36
 74
     0
 42
0.0000000001
 43
0.0000000001
 40
0.0
 40
0.0
 40
0.0
 40
0.0
 40
0.1111111111111111
 40
0.1111111111111111
 40
0.1111111111111111
 40
0.1111111111111111
 40
0.2222222222222222
 40
0.2222222222222222
 40
0.2222222222222222
 40
0.2222222222222222
 40
0.3333333333333333
 40
0.3333333333333333
 40
0.3333333333333333
 40
0.3333333333333333
 40
0.4444444444444444
 40
0.4444444444444444
 40
0.4444444444444444
 40
0.4444444444444444
 40
0.5555555555555556
 40
0.5555555555555556
 40
0.5555555555555556
 40
0.5555555555555556
 40
0.6666666666666667
 40
0.6666666666666667
 40
0.6666666666666667
 40
0.6666666666666667
 40
0.7777777777777779
 40
0.7777777777777779
 40
0.7777777777777779
 40
0.7777777777777779
 40
0.8888888888888891
 40
0.8888888888888891
 40
0.8888888888888891
 40
0.8888888888888891
 40
1.0
 40
1.0
 40
1.0
 40
1.0
 10
1.355771653543307
 20
0.1930866141732284
 30
0.0
 10
1.355771653543307
 20
0.1930866141732284
 30
0.0
 10
1.355771653543307
 20
0.6033858267716535
 30
0.0
 10
1.355771653543307
 20
0.6033858267716535
 30
0.0
 10
1.355771653543307
 20
0.6033858267716535
 30
0.0
 10
1.355771653543307
 20
0.6087952755905512
 30
0.0
 10
1.351232283464567
 20
0.6132047244094488
 30
0.0
 10
1.345661417322835
 20
0.6132047244094488
 30
0.0
 10
1.345661417322835
 20
0.6132047244094488
 30
0.0
 10
1.345661417322835
 20
0.6132047244094488
 30
0.0
 10
0.4558818897637795
 20
0.6132047244094488
 30
0.0
 10
0.4558818897637795
 20
0.6132047244094488
 30
0.0
 10
0.4558818897637795
 20
0.6132047244094488
 30
0.0
 10
0.4503110236220473
 20
0.6132047244094488
 30
0.0
 10
0.4457716535433071
 20
0.6087952755905512
 30
0.0
 10
0.4457716535433071
 20
0.6033858267716535
 30
0.0
 10
0.4457716535433071
 20
0.6033858267716535
 30
0.0
 10
0.4457716535433071
 20
0.6033858267716535
 30
0.0
 10
0.4457716535433071
 20
-0.751976377952756
 30
0.0
 10
0.4457716535433071
 20
-0.751976377952756
 30
0.0
 10
0.4457716535433071
 20
-0.751976377952756
 30
0.0
 10
0.4457716535433071
 20
-0.7573858267716536
 30
0.0
 10
0.4503110236220473
 20
-0.7617952755905512
 30
0.0
 10
0.4558818897637795
 20
-0.7617952755905512
 30
0.0
 10
0.4558818897637795
 20
-0.7617952755905512
 30
0.0
 10
0.4558818897637795
 20
-0.7617952755905512
 30
0.0
 10
1.345661417322835
 20
-0.7617952755905512
 30
0.0
 10
1.345661417322835
 20
-0.7617952755905512
 30
0.0
 10
1.345661417322835
 20
-0.7617952755905512
 30
0.0
 10
1.351232283464567
 20
-0.7617952755905512
 30
0.0
 10
1.355771653543307
 20
-0.7573858267716536
 30
0.0
 10
1.355771653543307
 20
-0.751976377952756
 30
0.0
 10
1.355771653543307
 20
-0.751976377952756
 30
0.0
 10
1.355771653543307
 20
-0.751976377952756
 30
0.0
 10
1.355771653543307
 20
-0.3416771653543307
 30
0.0
 10
1.355771653543307
 20
-0.3416771653543307
 30
0.0
  0
SPLINE
  5
41
330
1F
100
AcDbEntity
  8
Layer 1
 62
   250
370
     5
100
AcDbSpline
210
0.0
220
0.0
230
1.0
 70
     8
 71
     3
 72
     8
 73
     4
 74
     0
 42
0.0000000001
 43
0.0000000001
 40
0.0
 40
0.0
 40
0.0
 40
0.0
 40
1.0
 40
1.0
 40
1.0
 40
1.0
 10
1.375771653543307
 20
-0.3242952755905512
 30
0.0
 10
1.364645669291339
 20
-0.3242952755905512
 30
0.0
 10
1.355574803149606
 20
-0.3333661417322835
 30
0.0
 10
1.355574803149606
 20
-0.344492125984252
 30
0.0
  0
SPLINE
  5
42
330
1F
100
AcDbEntity
  8
Layer 1
 62
   250
370
     5
100
AcDbSpline
210
0.0
220
0.0
230
1.0
 70
     8
 71
     3
 72
     8
 73
     4
 74
     0
 42
0.0000000001
 43
0.0000000001
 40
0.0
 40
0.0
 40
0.0
 40
0.0
 40
1.0
 40
1.0
 40
1.0
 40
1.0
 10
1.355574803149606
 20
0.1959015748031496
 30
0.0
 10
1.355574803149606
 20
0.1847755905511811
 30
0.0
 10
1.364645669291339
 20
0.1757047244094488
 30
0.0
 10
1.375771653543307
 20
0.1757047244094488
 30
0.0
  0
SPLINE
  5
43
330
1F
100
AcDbEntity
  8
Layer 1
 62
   250
370
     5
100
AcDbSpline
210
0.0
220
0.0
230
1.0
 70
    24
 71
     3
 72
     8
 73
     4
 74
     0
 42
0.0000000001
 43
0.0000000001
 40
0.0
 40
0.0
 40
0.0
 40
0.0
 40
1.0
 40
1.0
 40
1.0
 40
1.0
 10
1.381972440944882
 20
-0.3242952755905512
 30
0.0
 10
1.381972440944882
 20
-0.3242952755905512
 30
0.0
 10
1.375771653543307
 20
-0.3242952755905512
 30
0.0
 10
1.375771653543307
 20
-0.3242952755905512
 30
0.0
  0
SPLINE
  5
44
330
1F
100
AcDbEntity
  8
Layer 1
 62
   250
370
     5
100
AcDbSpline
210
0.0
220
0.0
230
1.0
 70
     8
 71
     3
 72
    16
 73
    12
 74
     0
 42
0.0000000001
 43
0.0000000001
 40
0.0
 40
0.0
 40
0.0
 40
0.0
 40
0.3333333333333333
 40
0.3333333333333333
 40
0.3333333333333333
 40
0.3333333333333333
 40
0.6666666666666666
 40
0.6666666666666666
 40
0.6666666666666666
 40
0.6666666666666666
 40
1.0
 40
1.0
 40
1.0
 40
1.0
 10
1.381972440944882
 20
0.1757047244094488
 30
0.0
 10
1.392988188976378
 20
0.1757047244094488
 30
0.0
 10
1.401972440944882
 20
0.1667204724409449
 30
0.0
 10
1.401972440944882
 20
0.1557047244094488
 30
0.0
 10
1.401972440944882
 20
0.1557047244094488
 30
0.0
 10
1.401972440944882
 20
0.1557047244094488
 30
0.0
 10
1.401972440944882
 20
-0.3042952755905512
 30
0.0
 10
1.401972440944882
 20
-0.3042952755905512
 30
0.0
 10
1.401972440944882
 20
-0.3042952755905512
 30
0.0
 10
1.401972440944882
 20
-0.3153110236220473
 30
0.0
 10
1.392988188976378
 20
-0.3242952755905512
 30
0.0
 10
1.381972440944882
 20
-0.3242952755905512
 30
0.0
  0
SPLINE
  5
45
330
1F
100
AcDbEntity
  8
Layer 1
 62
   250
370
     5
100
AcDbSpline
210
0.0
220
0.0
230
1.0
 70
    24
 71
     3
 72
     8
 73
     4
 74
     0
 42
0.0000000001
 43
0.0000000001
 40
0.0
 40
0.0
 40
0.0
 40
0.0
 40
1.0
 40
1.0
 40
1.0
 40
1.0
 10
1.375771653543307
 20
0.1757047244094488
 30
0.0
 10
1.375771653543307
 20
0.1757047244094488
 30
0.0
 10
1.381972440944882
 20
0.1757047244094488
 30
0.0
 10
1.381972440944882
 20
0.1757047244094488
 30
0.0
  0
SPLINE
  5
46
330
1F
100
AcDbEntity
  8
Layer 1
 62
   250
370
     5
100
AcDbSpline
210
0.0
220
0.0
230
1.0
 70
    11
 71
     3
 72
    20
 73
    16
 74
     0
 42
0.0000000001
 43
0.0000000001
 40
0.0
 40
0.0
 40
0.0
 40
0.0
 40
0.25
 40
0.25
 40
0.25
 40
0.25
 40
0.5
 40
0.5
 40
0.5
 40
0.5
 40
0.75
 40
0.75
 40
0.75
 40
0.75
 40
1.0
 40
1.0
 40
1.0
 40
1.0
 10
0.3132755905511811
 20
0.4957047244094489
 30
0.0
 10
0.3132755905511811
 20
0.4694763779527559
 30
0.0
 10
0.3345472440944882
 20
0.4482047244094489
 30
0.0
 10
0.3607755905511811
 20
0.4482047244094489
 30
0.0
 10
0.3607755905511811
 20
0.4482047244094489
 30
0.0
 10
0.3870039370078741
 20
0.4482047244094489
 30
0.0
 10
0.4082755905511811
 20
0.4694763779527559
 30
0.0
 10
0.4082755905511811
 20
0.4957047244094489
 30
0.0
 10
0.4082755905511811
 20
0.4957047244094489
 30
0.0
 10
0.4082755905511811
 20
0.5219330708661417
 30
0.0
 10
0.3870039370078741
 20
0.5432047244094489
 30
0.0
 10
0.3607755905511811
 20
0.5432047244094489
 30
0.0
 10
0.3607755905511811
 20
0.5432047244094489
 30
0.0
 10
0.3345472440944882
 20
0.5432047244094489
 30
0.0
 10
0.3132755905511811
 20
0.5219330708661417
 30
0.0
 10
0.3132755905511811
 20
0.4957047244094489
 30
0.0
  0
ENDSEC
  0
SECTION
  2
OBJECTS
  0
DICTIONARY
  5
C
330
0
100
AcDbDictionary
281
     1
  3
ACAD_GROUP
350
D
  3
ACAD_LAYOUT
350
1A
  3
ACAD_MLINESTYLE
350
17
  3
ACAD_PLOTSETTINGS
350
19
  3
ACAD_PLOTSTYLENAME
350
E
  0
DICTIONARY
  5
D
102
{ACAD_REACTORS
330
C
102
}
330
C
100
AcDbDictionary
281
     1
  0
DICTIONARY
  5
1A
102
{ACAD_REACTORS
330
C
102
}
330
C
100
AcDbDictionary
281
     1
  3
Layout1
350
1E
  3
Layout2
350
26
  3
Model
350
22
  0
DICTIONARY
  5
17
102
{ACAD_REACTORS
330
C
102
}
330
C
100
AcDbDictionary
281
     1
  3
Standard
350
18
  0
DICTIONARY
  5
19
102
{ACAD_REACTORS
330
C
102
}
330
C
100
AcDbDictionary
281
     1
  0
ACDBDICTIONARYWDFLT
  5
E
102
{ACAD_REACTORS
330
C
102
}
330
C
100
AcDbDictionary
281
     1
  3
Normal
350
F
100
AcDbDictionaryWithDefault
340
F
  0
LAYOUT
  5
1E
102
{ACAD_REACTORS
330
1A
102
}
330
1A
100
AcDbPlotSettings
  1

  2

  4

  6

 40
0.0
 41
0.0
 42
0.0
 43
0.0
 44
0.0
 45
0.0
 46
0.0
 47
0.0
 48
0.0
 49
0.0
140
0.0
141
0.0
142
1.0
143
1.0
 70
   688
 72
     0
 73
     0
 74
     5
  7

 75
    16
 76
     0
 77
     2
 78
   300
147
1.0
148
0.0
149
0.0
100
AcDbLayout
  1
Layout1
 70
     1
 71
     1
 10
0.0
 20
0.0
 11
12.0
 21
9.0
 12
0.0
 22
0.0
 32
0.0
 14
1.000000000000000E+20
 24
1.000000000000000E+20
 34
1.000000000000000E+20
 15
-1.000000000000000E+20
 25
-1.000000000000000E+20
 35
-1.000000000000000E+20
146
0.0
 13
0.0
 23
0.0
 33
0.0
 16
1.0
 26
0.0
 36
0.0
 17
0.0
 27
1.0
 37
0.0
 76
     0
330
1B
  0
LAYOUT
  5
26
102
{ACAD_REACTORS
330
1A
102
}
330
1A
100
AcDbPlotSettings
  1

  2

  4

  6

 40
0.0
 41
0.0
 42
0.0
 43
0.0
 44
0.0
 45
0.0
 46
0.0
 47
0.0
 48
0.0
 49
0.0
140
0.0
141
0.0
142
1.0
143
1.0
 70
   688
 72
     0
 73
     0
 74
     5
  7

 75
    16
 76
     0
 77
     2
 78
   300
147
1.0
148
0.0
149
0.0
100
AcDbLayout
  1
Layout2
 70
     1
 71
     2
 10
0.0
 20
0.0
 11
0.0
 21
0.0
 12
0.0
 22
0.0
 32
0.0
 14
0.0
 24
0.0
 34
0.0
 15
0.0
 25
0.0
 35
0.0
146
0.0
 13
0.0
 23
0.0
 33
0.0
 16
1.0
 26
0.0
 36
0.0
 17
0.0
 27
1.0
 37
0.0
 76
     0
330
23
  0
LAYOUT
  5
22
102
{ACAD_REACTORS
330
1A
102
}
330
1A
100
AcDbPlotSettings
  1

  2

  4

  6

 40
0.0
 41
0.0
 42
0.0
 43
0.0
 44
0.0
 45
0.0
 46
0.0
 47
0.0
 48
0.0
 49
0.0
140
0.0
141
0.0
142
1.0
143
1.0
 70
  1712
 72
     0
 73
     0
 74
     0
  7

 75
     0
 76
     0
 77
     2
 78
   300
147
1.0
148
0.0
149
0.0
100
AcDbLayout
  1
Model
 70
     1
 71
     0
 10
0.0
 20
0.0
 11
0.0
 21
0.0
 12
0.0
 22
0.0
 32
0.0
 14
-1.4805
 24
-0.9507952755905512
 34
0.0
 15
1.687271653543307
 25
0.8022047244094488
 35
0.0
146
0.0
 13
0.0
 23
0.0
 33
0.0
 16
1.0
 26
0.0
 36
0.0
 17
0.0
 27
1.0
 37
0.0
 76
     0
330
1F
  0
MLINESTYLE
  5
18
102
{ACAD_REACTORS
330
17
102
}
330
17
100
AcDbMlineStyle
  2
Standard
 70
     0
  3

 62
   256
 51
90.0
 52
90.0
 71
     2
 49
0.5
 62
   256
  6
BYLAYER
 49
-0.5
 62
   256
  6
BYLAYER
  0
ACDBPLACEHOLDER
  5
F
102
{ACAD_REACTORS
330
E
102
}
330
E
  0
ENDSEC
  0
EOF
